<?xml version="1.0" encoding="UTF-8" standalone="no"?>
<svg
   xmlns:dc="http://purl.org/dc/elements/1.1/"
   xmlns:cc="http://creativecommons.org/ns#"
   xmlns:rdf="http://www.w3.org/1999/02/22-rdf-syntax-ns#"
   xmlns:svg="http://www.w3.org/2000/svg"
   xmlns="http://www.w3.org/2000/svg"
   xmlns:sodipodi="http://sodipodi.sourceforge.net/DTD/sodipodi-0.dtd"
   xmlns:inkscape="http://www.inkscape.org/namespaces/inkscape"
   id="Layer_1"
   viewBox="0 0 595.1 168.80001"
   version="1.1"
   sodipodi:docname="newcastle_uni_logo.svg"
   width="595.09998"
   height="168.8"
   inkscape:version="1.0.1 (1.0.1+r73)">
  <metadata
     id="metadata15">
    <rdf:RDF>
      <cc:Work
         rdf:about="">
        <dc:format>image/svg+xml</dc:format>
        <dc:type
           rdf:resource="http://purl.org/dc/dcmitype/StillImage" />
      </cc:Work>
    </rdf:RDF>
  </metadata>
  <defs
     id="defs13" />
  <sodipodi:namedview
     pagecolor="#ffffff"
     bordercolor="#666666"
     borderopacity="1"
     objecttolerance="10"
     gridtolerance="10"
     guidetolerance="10"
     inkscape:pageopacity="0"
     inkscape:pageshadow="2"
     inkscape:window-width="1862"
     inkscape:window-height="1016"
     id="namedview11"
     showgrid="false"
     inkscape:zoom="1.9740219"
     inkscape:cx="297.29999"
     inkscape:cy="84.999997"
     inkscape:window-x="58"
     inkscape:window-y="27"
     inkscape:window-maximized="1"
     inkscape:current-layer="Layer_1" />
  <style
     id="style2">.st0{fill:#fff}</style>
  <path
     d="m 234.8,70.5 c -15.2,0 -25.1,-10.8 -25.1,-26.9 0,-15.7 10.6,-27.1 25.8,-27.1 14.5,0 23.5,10.3 23.5,27.5 v 2.1 h -34.2 c 0,9 3.9,13.8 10.6,13.8 4.7,0 8.3,-2.8 9.6,-7.7 l 13.7,1.2 c -3.2,10.9 -11.9,17.1 -23.9,17.1 m 9.5,-32.7 c -0.1,-7.5 -3.6,-11.4 -9.6,-11.4 -5.6,0 -9.3,4.1 -9.6,11.4 z m 326.6,32.7 c -15.2,0 -25.1,-10.8 -25.1,-26.9 0,-15.7 10.6,-27.1 25.8,-27.1 14.5,0 23.5,10.3 23.5,27.5 v 2.1 h -34.2 c 0,9 3.9,13.8 10.6,13.8 4.7,0 8.3,-2.8 9.6,-7.7 l 13.7,1.2 c -3.2,10.9 -11.9,17.1 -23.9,17.1 m 9.5,-32.7 c -0.1,-7.5 -3.6,-11.4 -9.6,-11.4 -5.6,0 -9.3,4.1 -9.6,11.4 z M 260.4,18 h 16.1 l 7.4,30 7.1,-30 h 13.3 l 7.4,30.5 8.9,-30.5 h 12 l -14.7,51.1 h -13.5 l -8.5,-33.2 -8.4,33.2 H 275.2 L 260.4,18 m 99.3,8.9 c -6.5,0 -10.9,5.6 -11.1,16.5 -0.2,10.9 4.3,16.6 10.6,16.6 4.9,0 9.6,-3.8 10.4,-10.4 l 12.7,1.5 c -1.7,11.8 -11.1,19.4 -24.2,19.4 -15.2,0 -25.6,-10.8 -25.3,-26.9 0.3,-16.3 11.2,-27.1 27.4,-27.1 12.3,0 20.8,7.2 22.2,19.4 l -13.2,1.4 c -0.9,-6.7 -5.1,-10.4 -9.5,-10.4 m 60.2,33.9 a 17.4,17.4 0 0 1 -16.1,9.6 c -10.6,0 -17,-6.2 -17,-15.6 0,-12 11,-18.4 32.8,-18.6 V 34 c 0,-5.2 -2.7,-7.9 -8.1,-7.9 -6,0 -9.4,2.5 -10.1,7.2 l -13.3,-1.5 c 2.3,-10.1 10.4,-15.2 24.1,-15.2 15.3,0 21.3,6 21.3,20 v 22.7 c 0,4.2 0.4,7.5 1.4,9.9 h -14.1 a 36,36 0 0 1 -0.9,-8.4 m -18.2,-6.9 c 0,4.2 2.7,6.7 7.4,6.7 6,0 10.5,-5 10.5,-11.9 v -4.6 c -11.9,0.1 -17.9,3.7 -17.9,9.8 z M 451,53.1 c 1.2,4.7 5.5,7.4 11.8,7.4 5.4,0 8.4,-2.4 8.4,-5.6 0,-4.5 -4.3,-4.3 -11.8,-5.9 -12.1,-2.5 -18.2,-6.6 -18.2,-15.8 0,-9.6 7.8,-16.7 20.6,-16.7 10.5,0 17.6,4.7 20.6,13.3 L 471,32 c -1.7,-4.1 -4.8,-5.8 -9.7,-5.8 -4.7,0 -7.3,1.8 -7.3,5.1 0,4.5 4.9,4.3 14.1,6.3 11.1,2.4 16.5,6.4 16.5,15.3 0,10.1 -8.5,17.3 -23,17.3 -11.7,0 -20,-5.9 -22.4,-15.4 L 451,53.1 M 524.7,0 h 14.7 V 69.1 H 524.7 V 0 M 225.6,110.8 a 22,22 0 0 1 7.5,-7.9 18,18 0 0 1 9.7,-2.7 c 3.1,0 5.7,0.6 7.8,1.9 a 13,13 0 0 1 5.1,5.9 c 1.3,2.7 1.9,5.7 1.9,9 v 23.2 c 0,1.7 0.4,3 1.2,3.7 0.8,0.7 2.1,1.1 3.9,1.1 h 3.3 v 3.7 H 241 V 145 h 2.4 c 2.2,0 3.8,-0.4 4.6,-1.1 0.9,-0.7 1.3,-1.8 1.3,-3.2 v -20.3 c 0,-4.4 -0.7,-7.7 -2,-9.8 a 9.5,9.5 0 0 0 -8.5,-4.6 c -3.8,0 -6.9,1.5 -9.4,4.6 a 18.5,18.5 0 0 0 -3.8,12 v 17.6 c 0,1.7 0.4,2.9 1.2,3.7 0.8,0.7 2.1,1.1 3.9,1.1 h 3.3 v 3.7 H 208.5 V 145 h 3.3 c 1.6,0 2.9,-0.3 3.8,-1 a 3,3 0 0 0 1.3,-2.5 v -30.8 c 0,-2 -0.5,-3.6 -1.6,-4.6 a 6.8,6.8 0 0 0 -4.7,-1.6 h -2.4 v -3.3 l 16.9,-0.8 0.5,10.4 m 41.4,-9.6 19.1,-0.6 v 40.9 c 0,1.1 0.3,1.9 0.8,2.4 0.8,0.7 1.8,1 3,1 h 5.4 v 3.7 H 268 v -3.7 h 5 c 1.5,0 2.6,-0.4 3.3,-1.1 0.7,-0.7 1,-1.8 1,-3.2 v -30 c 0,-1.9 -0.5,-3.3 -1.6,-4.3 -1.1,-1 -2.7,-1.4 -4.8,-1.4 H 267 v -3.7 m 13.4,-20 a 5.8,5.8 0 0 1 5.7,5.8 5.8,5.8 0 0 1 -5.7,5.7 c -1.6,0 -2.9,-0.6 -4,-1.7 a 5.6,5.6 0 0 1 -1.7,-4 c 0,-1.5 0.6,-2.9 1.7,-4 a 5.3,5.3 0 0 1 4,-1.8 z m 197.3,20 19.1,-0.6 v 40.9 c 0,1.1 0.3,1.9 0.8,2.4 0.8,0.7 1.8,1 3,1 h 5.4 v 3.7 h -27.3 v -3.7 h 5 c 1.5,0 2.6,-0.4 3.3,-1.1 0.7,-0.7 1,-1.8 1,-3.2 v -30 c 0,-1.9 -0.5,-3.3 -1.6,-4.3 -1.1,-1 -2.7,-1.4 -4.8,-1.4 h -3.9 v -3.7 m 13.4,-20 c 1.5,0 2.9,0.6 4,1.7 a 5.4,5.4 0 0 1 1.7,4.1 5.8,5.8 0 0 1 -5.7,5.7 c -1.6,0 -2.9,-0.6 -4,-1.7 a 5.6,5.6 0 0 1 -1.7,-4 c 0,-1.5 0.6,-2.9 1.7,-4 a 5.5,5.5 0 0 1 4,-1.8 z M 291.9,101 h 23.6 v 3.5 c -3.1,0.1 -5.1,0.3 -6,0.8 -0.9,0.5 -1.3,1.2 -1.3,2.1 0,0.7 0.2,1.5 0.5,2.2 l 12.6,28.1 11.6,-27.3 c 0.2,-0.5 0.3,-0.9 0.3,-1.4 0,-2.5 -2.5,-4 -7.4,-4.6 v -3.5 h 19.8 v 3.5 c -2,0.2 -3.6,0.7 -4.8,1.6 -1.2,0.9 -2.1,2 -2.8,3.5 L 320.5,150 h -2.8 l -18.6,-41.6 a 6.7,6.7 0 0 0 -2.5,-3.1 9,9 0 0 0 -4.6,-0.9 V 101 m 95.4,24.2 h -34.3 c 0.2,7.3 1.5,12.4 4.1,15.4 a 14,14 0 0 0 11.2,5 c 6.7,0 12.1,-3.7 16.2,-11.2 l 3.2,1.4 c -5,9.6 -12.1,14.4 -21.5,14.4 -6.4,0 -11.8,-2.3 -16.1,-6.9 a 24.5,24.5 0 0 1 -6.5,-17.7 c 0,-7.7 2.1,-14 6.4,-18.8 4.3,-4.8 9.6,-7.2 15.9,-7.2 4.6,0 8.6,1.2 12,3.6 3.3,2.4 5.9,5.8 7.6,10.2 1.1,3.1 1.8,7 1.8,11.8 m -34.3,-3.6 h 21 c 1.2,0 2.2,-0.4 2.9,-1.2 0.7,-0.8 1,-2.2 1,-4.3 0,-3.7 -1.2,-6.9 -3.6,-9.5 a 11.1,11.1 0 0 0 -8.4,-3.9 c -3.6,0 -6.6,1.6 -9.1,4.7 a 24,24 0 0 0 -3.8,14.2 z m 85.1,9.4 c 2.1,5.9 4.5,10 7.3,12.2 a 15,15 0 0 0 10.1,3.4 c 3.7,0 6.6,-0.8 8.5,-2.4 a 7.6,7.6 0 0 0 1.9,-10 6,6 0 0 0 -3,-2.4 c -1.3,-0.5 -4.7,-1.3 -10.1,-2.3 -5.2,-1 -8.8,-2.1 -10.8,-3.2 -2,-1.1 -3.6,-2.7 -4.7,-4.6 a 13,13 0 0 1 -1.7,-6.4 c 0,-3.5 1.2,-6.7 3.5,-9.5 3,-3.6 7.2,-5.5 12.6,-5.5 4.1,0 7.9,1.3 11.5,4 l 3.4,-3.6 h 2.1 l 1.3,17.1 h -3.3 a 22.2,22.2 0 0 0 -6.1,-10.7 13.8,13.8 0 0 0 -9.4,-3.3 c -3.2,0 -5.8,0.8 -7.6,2.4 a 7.7,7.7 0 0 0 -2.8,5.9 c 0,2 0.8,3.7 2.5,5.1 1.7,1.4 4.9,2.5 9.8,3.2 5.6,0.9 9.3,1.7 11,2.4 a 13,13 0 0 1 6.4,4.7 13,13 0 0 1 2.3,7.7 c 0,4.2 -1.7,7.7 -5,10.6 a 18.4,18.4 0 0 1 -12.6,4.4 c -4.7,0 -9.1,-1.6 -13.1,-4.6 l -3.7,4.2 h -2.7 l -1,-18.7 h 3.4 M 541.1,101 H 564 v 3.5 h -2.1 c -2,0 -3.4,0.3 -4.1,0.8 -0.7,0.5 -1.1,1.3 -1.1,2.2 0,0.4 0.1,0.9 0.3,1.3 l 13.3,28.5 10,-23.6 c 0.7,-1.7 1.1,-3.3 1.1,-4.9 0,-1.2 -0.5,-2.2 -1.5,-2.9 -1,-0.7 -2.9,-1.1 -5.9,-1.3 v -3.5 h 19.8 v 3.5 c -3.8,0.4 -6.3,2 -7.6,5 l -17.9,41 a 39,39 0 0 1 -9.1,14.3 15,15 0 0 1 -9.8,3.9 c -2.5,0 -4.6,-0.7 -6.1,-2.1 a 6.8,6.8 0 0 1 -2.3,-5.1 c 0,-1.5 0.5,-2.8 1.4,-3.8 1,-1 2.1,-1.5 3.6,-1.5 1.3,0 2.4,0.4 3.3,1.3 0.9,0.8 1.3,1.8 1.3,3 l -0.2,1.5 -0.2,1.1 c 0,0.8 0.5,1.2 1.6,1.2 a 8,8 0 0 0 3.8,-1.2 c 1.4,-0.8 2.7,-2.1 4,-3.9 1.2,-1.8 3.4,-5.8 6.4,-12 l -18.2,-38.5 a 9.3,9.3 0 0 0 -2.4,-3 c -1,-0.6 -2.4,-1.1 -4.3,-1.3 V 101 M 144,0 h 18.7 l 26.2,42.7 V 0 h 14.6 v 69.1 h -15.6 l -29.3,-48 v 48 H 144 V 0"
     class="st0"
     id="path4" />
  <path
     d="m 135.3,79.5 h 31.2 v 3.7 h -5.2 c -1.8,0 -3.1,0.3 -3.9,0.9 -0.7,0.6 -1.1,1.5 -1.1,2.8 v 37.8 c 0,4.4 0.4,7.8 1.2,10.1 a 15,15 0 0 0 6.3,8 c 3.1,2 7.1,3 12,3 6.8,0 12,-1.8 15.6,-5.3 a 19,19 0 0 0 5.4,-14.2 V 96.5 a 29,29 0 0 0 -0.6,-6.9 c -0.4,-1.6 -1,-2.8 -1.8,-3.7 a 8,8 0 0 0 -3,-2 c -1.2,-0.4 -3.3,-0.6 -6.1,-0.6 v -3.7 h 28.6 v 3.7 h -2 c -3.2,0 -5.5,0.9 -7.1,2.6 -1.6,1.7 -2.3,4.2 -2.3,7.5 v 32.3 c 0,8.1 -2.3,14.3 -6.9,18.6 a 29,29 0 0 1 -20.7,7.3 c -7.5,0 -13.3,-1.1 -17.6,-3.2 a 19.6,19.6 0 0 1 -9.3,-9.1 c -1.5,-3 -2.2,-6.8 -2.2,-11.4 V 87.1 c 0,-1.1 -0.4,-2.1 -1.2,-2.7 -0.8,-0.7 -2,-1 -3.6,-1 h -5.4 v -3.9 m 382.5,-21 c -1.6,0.3 -3.1,0.5 -4.4,0.5 -5.1,0 -6.2,-2.3 -6.2,-8.1 v -23 h 10.6 V 18 H 507.5 V 3.1 L 492.6,5.8 V 17.9 H 486 v 9.9 h 6.6 v 24.6 c 0,12.5 4.8,18 16.8,18 2.7,0 5.6,-0.3 8.6,-0.9 v -11 m 19.9,72.1 a 21,21 0 0 1 -2.8,10.8 c -1.6,2.2 -3.6,3.3 -5.9,3.3 -1.9,0 -3.5,-0.7 -4.8,-2.1 -1.3,-1.4 -1.9,-3.5 -1.9,-6.2 v -31.1 h 15 v -4.1 h -15 v -20 H 519 a 26,26 0 0 1 -4.9,15.6 c -2,2.6 -5,4.2 -8.9,4.8 v 3.5 h 8.5 v 32.6 c 0,3.6 1.1,6.4 3.4,8.6 a 13,13 0 0 0 9.4,3.3 c 4.3,0 7.9,-1.6 10.6,-4.7 2.7,-3.1 4.2,-7.9 4.4,-14.4 h -3.6 M 425.6,99.3 c -8.3,0 -15.3,9.7 -18.2,20.6 v -19.7 l -17.3,0.8 v 3.7 h 4.1 c 1.8,0 3.2,0.5 4.2,1.6 1,1.1 1.5,2.7 1.5,5.1 v 30.3 c 0,0.9 -0.4,1.6 -1.2,2.3 -0.8,0.6 -2,0.9 -3.6,0.9 h -4.7 v 3.7 h 29.8 v -3.7 h -6.1 c -2,0 -3.4,-0.3 -4.2,-0.9 a 3,3 0 0 1 -1.2,-2.6 v -8.8 c 0,-9.2 3.9,-24.8 11.6,-24.8 2.1,0 1.7,3.4 5.9,3.4 3.4,0 5.8,-2.5 5.8,-5.8 -0.1,-3.7 -3,-6.1 -6.4,-6.1 M 99.7,102.4 A 35,35 0 0 0 98.2,92.2 c -9.6,6.3 -19,7.9 -24.7,4.5 C 73.8,96.3 74,95.8 74,95.3 74,94 73,93 71.7,93 c -0.5,0 -1,0.2 -1.4,0.5 -3.4,-5.6 -1.8,-15.1 4.5,-24.7 a 35,35 0 0 0 -20.4,0 c 6.3,9.6 7.9,19 4.5,24.7 C 58.5,93.2 58,93 57.5,93 c -1.3,0 -2.3,1 -2.3,2.3 0,0.5 0.2,1 0.5,1.4 -5.6,3.4 -15.1,1.8 -24.7,-4.5 a 35,35 0 0 0 0,20.4 c 9.6,-6.3 19,-7.9 24.7,-4.5 -0.3,0.4 -0.5,0.9 -0.5,1.4 0,1.3 1,2.3 2.3,2.3 0.5,0 1,-0.2 1.4,-0.5 3.4,5.6 1.8,15.1 -4.5,24.7 a 35,35 0 0 0 20.4,0 c -6.3,-9.6 -7.9,-19 -4.5,-24.7 0.4,0.3 0.9,0.5 1.4,0.5 1.3,0 2.3,-1 2.3,-2.3 0,-0.5 -0.2,-1 -0.5,-1.4 5.6,-3.4 15.1,-1.8 24.7,4.5 0.9,-3.3 1.5,-6.8 1.5,-10.2 z m -35.2,6.3 a 6.4,6.4 0 0 1 -6.4,-6.4 c 0,-3.5 2.8,-6.4 6.4,-6.4 3.5,0 6.4,2.8 6.4,6.4 0,3.6 -2.9,6.4 -6.4,6.4 z M 34.4,28.1 c -1.3,3.8 1.4,4.9 1.4,4.9 0,0 2.4,1.5 4.7,-1.8 2,0.7 2.9,-0.7 2.8,-1.3 C 42.5,30 42,30.5 40.5,29.8 39,29 38.9,28.2 39,27.9 c 0.3,-0.6 1.2,-0.3 2,-0.3 0.8,0.1 1.6,-0.4 1.7,-0.9 0.2,-0.7 -0.3,-1.3 -0.8,-1.5 0.8,1.7 -1.8,0.6 -2.4,0.3 -0.6,-0.3 -3,-1.8 -1.1,-2.1 -0.4,-0.3 -1.2,-0.3 -1.7,0.2 -0.4,0.4 -0.2,1.3 0.3,1.9 0.5,0.6 1.3,1.1 1,1.7 -0.2,0.3 -0.7,0.8 -2.2,0 -1.5,-0.8 -1.7,-1.7 -1.9,-2.3 -0.6,0.4 -1.3,1.9 0.5,3.2 z m 5.8,-8 C 39.8,20 38.7,19.6 38.1,19 37.2,18.2 37,17.6 36.6,16.9 c -0.2,-0.3 -0.8,0.2 -1.1,0.5 -0.7,0.7 -0.3,2 0.8,3 2.2,2.1 4.1,0.7 3.9,-0.3 z m 5.1,4.7 c 1.5,0.3 2.7,-0.2 2.8,-1.1 0.1,-0.4 0.1,-1.1 -0.3,-1.1 -0.8,0 -1.3,0.3 -2.5,0 -0.8,-0.2 -1.7,-0.7 -2,-1 -0.9,0.4 -0.9,2.7 2,3.2 z"
     class="st0"
     id="path6" />
  <path
     d="m 0,0 v 60.6 c 0,57.3 64.5,90.4 64.5,90.4 0,0 64.5,-32.9 64.5,-90.4 V 0 Z m 24.2,24.9 c 0.8,0.4 3.7,0.3 5,-1.8 -2.6,0 -3.9,-2.6 -3.8,-3.8 1.7,0.6 4.8,1.2 6.8,-1.6 -0.5,0.7 -4.1,-1.8 -3,-4.1 2.3,1.1 8.8,-2.7 5.8,-6.1 2.8,-0.7 5.6,0.5 6,3.5 1.7,-2.4 4.1,-2.3 5.3,-2.2 -0.5,0.9 -1,3 0.5,3.4 1.2,0.3 2.8,-0.3 2.8,-2.2 1.2,0.8 2.2,4.5 1.2,5.7 0,0 3.8,-2.4 5.5,0.9 -3.4,-0.1 -2.9,6.5 -0.9,6.8 -1.1,2.5 -3.3,1.8 -4.4,1.1 -0.4,1.8 -0.4,6.8 1.1,8.9 -1.1,0.4 -3.4,0 -5,-1.5 -0.7,1 -1.3,3.9 0.2,6.7 a 5,5 0 0 1 -4.6,-1.7 c -1,2.4 -3.3,6.4 -7.8,5.9 0.8,-4 -4,-5.7 -6.2,-1.5 l -1,-1.7 c -1.4,-2 -2.3,-7 0.3,-11.2 -1,0.2 -4.1,-1.6 -3.8,-3.5 z M 7.8,12.7 c 3.9,-2.9 6.4,0.8 7.2,3.6 3.9,-2.9 0.2,-6.8 -0.5,-7.2 0,0 3.1,-0.3 4.4,2.9 1.2,3 -0.3,4.8 -0.3,4.8 0,0 1,0 1.6,-0.5 2.2,-1.5 2.1,-3.5 2,-3.9 0,0 1.6,1 1.4,2.9 -0.1,1.3 -1.4,2.3 -2,3 -0.5,0.7 -1.8,2.2 -0.2,7 0.8,2.3 2,4.1 2.9,4.5 -0.5,1 -1.4,2.2 -1,5.1 -4.9,0 -10.4,-9.9 -10.9,-10.7 2.8,-0.2 2.7,-1.6 2.4,-2.5 -1,-3.3 -7.3,-0.2 -7.8,0.4 0.2,-3.2 3.7,-4.5 5.8,-4.1 -0.5,-5.1 -5,-5.3 -5,-5.3 z M 14.5,40 c 0,0 2,-3.2 -1,-5.5 0,0 3.4,-0.3 4.3,2 0.4,1.1 -0.4,3.1 0.2,4.4 0.6,1.3 2.3,2 4.3,2.2 6.8,0.8 7,-0.2 8.7,-0.4 1.5,0.7 1.8,2.8 1.4,3.1 a 9.4,9.4 0 0 0 10.8,-4.6 c 2.4,1.6 7,-0.6 8.2,-1 -1.5,-1.6 -2.7,-3.5 -2.4,-4.5 3,1.4 6.2,-0.3 7.9,-1.1 C 53.2,32.3 54,28.2 54,26.9 l 28.4,-4 c 3.4,-0.5 6.8,-0.1 8,0.1 1.3,0.2 6,1.3 9.9,1.3 3.8,0 5.4,-1.5 5.9,-2.8 2.5,-6.5 -10.5,-3.9 -13.9,-2.8 -2.6,0.8 -15.5,3 -19,3.2 -8.5,0.6 -12,-3.5 -11.9,-7.5 0.1,-3.9 4.8,-4.8 10,-4.6 5.2,0.2 5.5,-2.2 10.9,-2.5 5.6,-0.3 13.9,3.3 15,4.8 -3.7,-0.3 -5.2,0.2 -7.2,0.9 -1.9,0.8 -5.8,2.3 -8.8,2.3 -1.1,0 -3.2,0 -5.3,-0.7 -2.9,-1 -6.6,-2.5 -9.1,-2.5 -1.6,0 -3.4,1 -3.2,3.2 0.4,3.7 5.3,4.7 8.7,4.7 3.4,0 8.5,-0.9 13.9,-1.9 5.5,-1 9.6,-3.2 15,-3.7 8.7,-0.8 8.9,6.2 8.9,6.2 3.6,-3.8 8.4,-1.9 8.8,0.6 0,0 -2.9,-1 -5.3,0.2 -3,1.6 -3,4.2 -6.6,5.8 -3.6,1.7 -13.3,0.5 -13.3,0.5 0,0 -1.5,5.6 2.3,6.3 3.8,0.6 8.6,-2.7 8.6,-2.7 0.9,0.8 1,2.7 0.9,3.4 3,-2.2 6.2,-2.5 7.6,-1.7 -4,1.6 4,6.5 4.6,7.7 0,0 -2.8,0.4 -1.8,2.2 0.2,0.4 1.8,3.8 7.6,0.2 -1.7,3.8 -5.3,4.3 -7,3.5 0,0 -0.8,2.6 4.3,4.2 -4.9,0.3 -7.1,-1.8 -7.4,-2.8 0,0 -3.4,2.5 -2.4,6.1 -3.7,-2 -1.1,-6.8 0.3,-8 -1.5,-0.3 -5.6,-0.6 -7.2,2 0,0 -0.5,-2.5 1.3,-3.5 1.3,-0.7 3.4,-0.2 4.7,-0.1 0.5,0 0.8,-0.5 0.6,-1.2 -0.1,-0.2 -1,-2.9 -4.6,-2.7 l -13.6,1.3 c -1.7,0.2 -4.4,0.9 -6.1,-0.7 -1.7,-1.6 -1.3,-3.9 -3,-6.3 -3.6,-4.5 -14,2.9 -22.4,6.9 -4.6,2.2 -9.1,2.7 -11.9,3.9 -2.4,1 -4.3,2.4 -4.3,4.1 0,1.1 1.4,1.8 1.4,1.8 -1.2,0.9 -8.1,1 -8.8,-1.2 -2.2,2.7 -8.1,2.5 -9.1,1.9 1.9,-1.4 0,-3.2 0,-3.2 -1.2,1.3 -4,3.8 -10.2,1 0,0 2,-2.4 -0.8,-3.2 -0.8,-0.2 -1.7,0.2 -1.9,0.8 -0.3,0.9 -2.3,3.6 0,5.4 -2.3,0.2 -5.2,-3.8 -2.7,-8 -0.9,-0.3 -6,0.1 -6.2,3.9 -2.8,-5.6 2.7,-6.9 5.7,-7.1 0,0 -2.3,-4.2 -6.7,-2.5 1.7,-5 6,-2.2 8.9,0.6 z M 71,56.1 c -3.3,0.8 -5.1,-3.1 -4.8,-5.2 0,0 -4.3,0.7 -4.7,5 -2.3,-3.7 0.8,-6 2.2,-6.2 0,0 -3.1,-3.3 -7.1,-0.9 0.3,-2.3 4.5,-4.7 9.1,-1.2 0,0 -0.9,-4.3 -3.9,-4.2 0,0 1.9,-1.3 3.6,-0.6 2.1,0.9 2.1,3.6 3.6,4.1 2,0.6 5.1,-1.4 5.4,-1.7 0.3,-0.3 0.6,-0.7 0,-1.2 -0.3,-0.2 -0.6,-0.5 -1.9,-1.2 -2,-0.9 -0.3,-3.8 0.2,-4.3 1.8,-1.7 5.1,-3.3 7.2,-1.2 1.5,1.5 2.3,5.4 2.5,6 0.2,0.6 1.5,3.8 4.8,4.3 -2.5,1.7 -6,0.6 -7.3,-1.3 0.2,2.5 -3.3,7.1 -4.6,7.2 0,0 0,-3.6 -4.7,-3.1 -0.9,0.1 -1.5,0.5 -1.5,1.1 -0.2,1.3 -0.6,3 1.9,4.6 z m 54.6,5 c 0,54.4 -61,85.5 -61,85.5 0,0 -61,-31.3 -61,-85.5 v -0.5 h 122 z"
     class="st0"
     id="path8" />
</svg>
